<svg width="600" height="600" viewBox="0 0 600 600" fill="none" xmlns="http://www.w3.org/2000/svg">
  <path d="M412.75 125.25L363.75 76.25C328.75 41.25 271.25 41.25 236.25 76.25L187.25 125.25C177.5 135 177.5 151 187.25 160.75L282.5 256C292.25 265.75 308 265.75 317.75 256L413 160.75C422.5 151 422.5 135 412.75 125.25Z" fill="#FFFFFF"/>
  <path d="M125.25 187.25L76.25 236.25C41.25 271.25 41.25 328.75 76.25 363.75L125.25 412.75C135 422.5 150.75 422.5 160.5 412.75L255.75 317.5C265.5 307.75 265.5 292 255.75 282.25L160.75 187.25C151 177.5 135 177.5 125.25 187.25Z" fill="#FFFFFF"/>
  <path d="M523.75 236.25L474.75 187.25C465 177.5 449.25 177.5 439.5 187.25L344.25 282.5C334.5 292.25 334.5 308 344.25 317.75L439.5 413C449.25 422.75 465 422.75 474.75 413L523.75 364C558.75 328.75 558.75 271.25 523.75 236.25Z" fill="#FFFFFF"/>
  <path d="M187.25 474.75L236.25 523.75C271.25 558.75 328.75 558.75 363.75 523.75L412.75 474.75C422.5 465 422.5 449.25 412.75 439.5L317.5 344.25C307.75 334.5 292 334.5 282.25 344.25L187 439.5C177.5 449 177.5 465 187.25 474.75Z" fill="#FFFFFF"/>
</svg>
