<svg overflow="visible" style="display: block;" viewBox="0 0 117.4 117.6" fill="none" xmlns="http://www.w3.org/2000/svg">
<g id="Group 4">
<path id="Vector" d="M58.7 58.9L116.7 87.9L58.7 116.9L0.7 87.9L58.7 58.9Z" fill="var(--fill-0, #F4F3EE)" fill-opacity="0.04" stroke="var(--stroke-0, #C9C8C0)" stroke-width="1.4" stroke-linejoin="round"/>
<path id="Vector_2" d="M38.7 80.9L66.7 94.9" stroke="var(--stroke-0, #C9C8C0)" stroke-width="1.3" stroke-linecap="round"/>
<path id="Vector_3" d="M46.7 76.9L74.7 90.9" stroke="var(--stroke-0, #C9C8C0)" stroke-width="1.3" stroke-linecap="round"/>
<path id="Vector_4" d="M54.7 72.9L82.7 86.9" stroke="var(--stroke-0, #C9C8C0)" stroke-width="1.3" stroke-linecap="round"/>
<path id="Vector_5" d="M39.8761 72.5147L40.2533 75.2676L45.209 73.935" stroke="var(--stroke-0, #C9C8C0)" stroke-width="1.3" stroke-linecap="round" stroke-linejoin="round"/>
<path id="Vector_6" d="M32.8801 76.3944L33.2573 79.1473L38.213 77.8147" stroke="var(--stroke-0, #C9C8C0)" stroke-width="1.3" stroke-linecap="round" stroke-linejoin="round"/>
<path id="Vector_7" d="M88.7 24.9L88.7 66.9" stroke="var(--stroke-0, #6E6D63)" stroke-width="1.1" stroke-dasharray="3 3"/>
<path id="Vector_8" d="M88.7 26.9C95.8797 26.9 101.7 21.0797 101.7 13.9C101.7 6.7203 95.8797 0.9 88.7 0.9C81.5203 0.9 75.7 6.7203 75.7 13.9C75.7 21.0797 81.5203 26.9 88.7 26.9Z" fill="var(--fill-0, #CDF94A)" fill-opacity="0.08" stroke="var(--stroke-0, #CDF94A)" stroke-width="1.8"/>
<path id="Vector_9" d="M82.7 13.9L86.7 17.9L94.7 9.9" stroke="var(--stroke-0, #CDF94A)" stroke-width="1.5" stroke-linecap="round" stroke-linejoin="round"/>
</g>
</svg>
