<svg overflow="visible" style="display: block;" viewBox="0 0 133.4 128.6" fill="none" xmlns="http://www.w3.org/2000/svg">
<g id="isometric">
<path id="Vector" d="M66.7 55.9L132.7 91.9L66.7 127.9L0.7 91.9L66.7 55.9Z" fill="var(--fill-0, #F4F3EE)" fill-opacity="0.04" stroke="var(--stroke-0, #C9C8C0)" stroke-width="1.4" stroke-linejoin="round"/>
<path id="Vector_2" d="M35.5333 54.9V78.9" stroke="var(--stroke-0, #6E6D63)" stroke-width="1.1" stroke-dasharray="3 3"/>
<path id="Vector_3" d="M73.7 27.9L73.7 68.9" stroke="var(--stroke-0, #6E6D63)" stroke-width="1.1" stroke-dasharray="3 3"/>
<path id="Vector_4" d="M107.033 58.9V80.9" stroke="var(--stroke-0, #6E6D63)" stroke-width="1.1" stroke-dasharray="3 3"/>
<path id="Vector_5" d="M35.5333 30.9L57.5333 42.9L35.5333 54.9L13.5333 42.9L35.5333 30.9Z" fill="var(--fill-0, #F4F3EE)" fill-opacity="0.04" stroke="var(--stroke-0, #C9C8C0)" stroke-width="1.4" stroke-linejoin="round"/>
<path id="Vector_6" d="M26.3667 40.9L39.2 47.9" stroke="var(--stroke-0, #C9C8C0)" stroke-width="1.3" stroke-linecap="round"/>
<path id="Vector_7" d="M107.033 34.9L129.033 46.9L107.033 58.9L85.0333 46.9L107.033 34.9Z" fill="var(--fill-0, #F4F3EE)" fill-opacity="0.04" stroke="var(--stroke-0, #C9C8C0)" stroke-width="1.4" stroke-linejoin="round"/>
<path id="Vector_8" d="M97.8667 44.9L110.7 51.9" stroke="var(--stroke-0, #C9C8C0)" stroke-width="1.3" stroke-linecap="round"/>
<path id="Vector_9" d="M74.0333 0.9L96.0333 12.9L74.0333 24.9L52.0333 12.9L74.0333 0.9Z" fill="var(--fill-0, #CDF94A)" fill-opacity="0.08" stroke="var(--stroke-0, #CDF94A)" stroke-width="1.8" stroke-linejoin="round"/>
<path id="Vector_10" d="M74.0333 15.9C75.5521 15.9 76.7833 14.5569 76.7833 12.9C76.7833 11.2431 75.5521 9.9 74.0333 9.9C72.5146 9.9 71.2833 11.2431 71.2833 12.9C71.2833 14.5569 72.5146 15.9 74.0333 15.9Z" fill="var(--fill-0, #CDF94A)"/>
</g>
</svg>
