<svg preserveAspectRatio="none" width="100%" height="100%" overflow="visible" style="display: block;" viewBox="0 0 60.8023 5.52" fill="none" xmlns="http://www.w3.org/2000/svg">
<g id="UX UI DESIGNER">
<path id="Vector" d="M56.8101 5.44H55.9461V0.0799999H58.7301C59.9461 0.0799999 60.6981 0.655999 60.6981 1.656C60.6981 2.544 60.1141 3.088 59.1061 3.144V3.2C59.5221 3.312 59.7141 3.552 59.9061 3.888L60.8021 5.44H59.8101L58.9541 3.96C58.7141 3.536 58.4661 3.36 57.7941 3.36H56.8101V5.44ZM56.8101 0.856V2.696H58.7221C59.4421 2.696 59.8021 2.448 59.8021 1.776C59.8021 1.12 59.4421 0.856 58.7221 0.856H56.8101Z" fill="var(--fill-0, white)"/>
<path id="Vector_2" d="M55.2731 5.44H50.9851V0.0799999H55.2731V0.856H51.8491V2.36H55.1531V3.128H51.8491V4.664H55.2731V5.44Z" fill="var(--fill-0, white)"/>
<path id="Vector_3" d="M46.1382 5.44H45.2742V0.0799999H46.2022L48.6022 3.216L49.2982 4.216H49.3622L49.3222 3.248V0.0799999H50.1862V5.44H49.2582L46.8422 2.312L46.1702 1.368H46.1062L46.1382 2.296V5.44Z" fill="var(--fill-0, white)"/>
<path id="Vector_4" d="M41.7538 5.52C40.1778 5.52 39.1298 4.432 39.1298 2.76C39.1298 1.088 40.2578 0 41.9698 0C43.4898 0 44.5458 0.768 44.5458 2.008V2.072H43.5938V2.008C43.5938 1.24 43.0578 0.824 41.9458 0.824C40.6578 0.824 40.0418 1.424 40.0418 2.76C40.0418 4.096 40.6498 4.688 41.9058 4.688C43.1858 4.688 43.6898 4.336 43.6898 3.432V3.36H41.7058V2.704H44.5458V5.44H43.7618V4.28H43.7058C43.4818 5.064 42.8018 5.52 41.7538 5.52Z" fill="var(--fill-0, white)"/>
<path id="Vector_5" d="M38.4897 5.44H37.6258V0.0799999H38.4897V5.44Z" fill="var(--fill-0, white)"/>
<path id="Vector_6" d="M34.7644 5.52C33.1644 5.52 32.3484 4.816 32.3484 3.688V3.64H33.2124V3.768C33.2124 4.408 33.5884 4.728 34.7644 4.728C35.7884 4.728 36.1484 4.504 36.1484 4C36.1484 3.536 35.8764 3.36 35.1964 3.232L33.8844 3.016C32.9804 2.856 32.3404 2.44 32.3404 1.56C32.3404 0.784 32.9804 0 34.6444 0C36.2124 0 36.9244 0.784 36.9244 1.832V1.88H36.0684V1.776C36.0684 1.12 35.6764 0.792 34.5644 0.792C33.5884 0.792 33.2044 1.032 33.2044 1.512C33.2044 1.976 33.4764 2.128 34.1084 2.264L35.4124 2.488C36.4844 2.68 37.0124 3.168 37.0124 3.952C37.0124 4.768 36.3484 5.52 34.7644 5.52Z" fill="var(--fill-0, white)"/>
<path id="Vector_7" d="M31.8434 5.44H27.5554V0.0799999H31.8434V0.856H28.4194V2.36H31.7234V3.128H28.4194V4.664H31.8434V5.44Z" fill="var(--fill-0, white)"/>
<path id="Vector_8" d="M24.1997 5.44H21.7597V0.0799999H24.1997C25.8637 0.0799999 26.9117 1.104 26.9117 2.76C26.9117 4.416 25.8637 5.44 24.1997 5.44ZM24.1997 0.856H22.6157V4.664H24.1997C25.4397 4.664 25.9997 4.136 25.9997 2.76C25.9997 1.384 25.4397 0.856 24.1997 0.856Z" fill="var(--fill-0, white)"/>
<path id="Vector_9" d="M19.5444 5.44H18.6804V0.0799999H19.5444V5.44Z" fill="var(--fill-0, white)"/>
<path id="Vector_10" d="M15.3948 5.52C13.7948 5.52 12.8828 4.672 12.8828 3.216V0.0799999H13.7388V3.16C13.7388 4.24 14.2188 4.688 15.3948 4.688C16.5708 4.688 17.0508 4.24 17.0508 3.16V0.0799999H17.9148V3.216C17.9148 4.672 17.0028 5.52 15.3948 5.52Z" fill="var(--fill-0, white)"/>
<path id="Vector_11" d="M6.51762 5.44H5.39762L7.55762 2.776V2.712L5.39762 0.0799999H6.51762L8.26163 2.192H8.32563L10.0296 0.0799999H11.1496L8.98962 2.72V2.784L11.1496 5.44H10.0296L8.29362 3.288H8.22962L6.51762 5.44Z" fill="var(--fill-0, white)"/>
<path id="Vector_12" d="M2.512 5.52C0.912 5.52 0 4.672 0 3.216V0.0799999H0.856V3.16C0.856 4.24 1.336 4.688 2.512 4.688C3.688 4.688 4.168 4.24 4.168 3.16V0.0799999H5.032V3.216C5.032 4.672 4.12 5.52 2.512 5.52Z" fill="var(--fill-0, white)"/>
</g>
</svg>
