<svg preserveAspectRatio="none" width="100%" height="100%" overflow="visible" style="display: block;" viewBox="0 0 94.3907 10.32" fill="none" xmlns="http://www.w3.org/2000/svg">
<g id="Chuong Nguyen">
<path id="Vector" d="M89.5425 8.16H87.7425V2.148H89.4105V3.996H89.5185C89.6745 2.988 90.3945 2.028 91.9665 2.028C93.6105 2.028 94.3905 3.084 94.3905 4.416V8.16H92.5905V5.016C92.5905 4.056 92.1945 3.648 91.0905 3.648C89.9505 3.648 89.5425 4.104 89.5425 5.124V8.16Z" fill="var(--fill-0, white)"/>
<path id="Vector_2" d="M83.7392 8.28C81.7352 8.28 80.3672 7.296 80.3672 5.16C80.3672 3.24 81.7232 2.028 83.7032 2.028C85.6712 2.028 86.9792 3.06 86.9792 4.944C86.9792 5.16 86.9552 5.316 86.9312 5.52H82.0352C82.0832 6.444 82.5152 6.84 83.6792 6.84C84.7472 6.84 85.1192 6.564 85.1192 6.048V5.928H86.9192V6.06C86.9192 7.368 85.6472 8.28 83.7392 8.28ZM83.6672 3.432C82.5992 3.432 82.1432 3.792 82.0592 4.572H85.2512C85.2032 3.78 84.7232 3.432 83.6672 3.432Z" fill="var(--fill-0, white)"/>
<path id="Vector_3" d="M74.2461 10.2H73.2621V8.568H74.7381C75.1821 8.568 75.3741 8.448 75.4941 8.184L72.5541 2.148H74.5941L75.8661 4.896L76.3701 6.312H76.4901L76.9701 4.884L78.1101 2.148H80.1141L77.1381 8.592C76.5621 9.852 75.7581 10.2 74.2461 10.2Z" fill="var(--fill-0, white)"/>
<path id="Vector_4" d="M67.9257 8.28C66.2337 8.28 65.4297 7.236 65.4297 5.892V2.148H67.2297V5.292C67.2297 6.264 67.6377 6.672 68.7777 6.672C69.9537 6.672 70.3737 6.216 70.3737 5.196V2.148H72.1737V8.16H70.4937V6.324H70.3977C70.2417 7.332 69.5097 8.28 67.9257 8.28Z" fill="var(--fill-0, white)"/>
<path id="Vector_5" d="M60.3473 7.548C58.5593 7.548 57.5273 6.48 57.5273 4.788C57.5273 3.108 58.6193 2.028 60.4193 2.028C61.6433 2.028 62.5193 2.556 62.7113 3.6H62.8073V2.148H64.4873V7.284C64.4873 9.384 63.2153 10.32 61.0673 10.32C59.1233 10.32 57.8993 9.456 57.8993 7.944H59.6993C59.6993 8.616 59.9633 8.82 61.1873 8.82C62.3393 8.82 62.6873 8.58 62.6873 7.404V6.048H62.5913C62.3993 6.936 61.6913 7.548 60.3473 7.548ZM59.3393 4.788C59.3393 5.676 59.8433 6 60.9713 6C62.1233 6 62.6873 5.676 62.6873 4.848V4.716C62.6873 3.9 62.1113 3.588 60.9953 3.588C59.8433 3.588 59.3393 3.9 59.3393 4.788Z" fill="var(--fill-0, white)"/>
<path id="Vector_6" d="M50.8003 8.16H49.0003V0.12H50.9203L53.8003 3.924L54.9043 5.616H55.0363L54.9523 3.996V0.12H56.7523V8.16H54.8323L51.8683 4.32L50.8483 2.808H50.7283L50.8003 4.284V8.16Z" fill="var(--fill-0, white)"/>
<path id="Vector_7" d="M42.0544 7.548C40.2664 7.548 39.2344 6.48 39.2344 4.788C39.2344 3.108 40.3264 2.028 42.1264 2.028C43.3504 2.028 44.2264 2.556 44.4184 3.6H44.5144V2.148H46.1944V7.284C46.1944 9.384 44.9224 10.32 42.7744 10.32C40.8304 10.32 39.6064 9.456 39.6064 7.944H41.4064C41.4064 8.616 41.6704 8.82 42.8944 8.82C44.0464 8.82 44.3944 8.58 44.3944 7.404V6.048H44.2984C44.1064 6.936 43.3984 7.548 42.0544 7.548ZM41.0464 4.788C41.0464 5.676 41.5504 6 42.6784 6C43.8304 6 44.3944 5.676 44.3944 4.848V4.716C44.3944 3.9 43.8184 3.588 42.7024 3.588C41.5504 3.588 41.0464 3.9 41.0464 4.788Z" fill="var(--fill-0, white)"/>
<path id="Vector_8" d="M33.6558 8.16H31.8558V2.148H33.5238V3.996H33.6318C33.7878 2.988 34.5078 2.028 36.0798 2.028C37.7238 2.028 38.5038 3.084 38.5038 4.416V8.16H36.7038V5.016C36.7038 4.056 36.3078 3.648 35.2038 3.648C34.0638 3.648 33.6558 4.104 33.6558 5.124V8.16Z" fill="var(--fill-0, white)"/>
<path id="Vector_9" d="M27.6887 8.28C25.6367 8.28 24.2567 7.056 24.2567 5.16C24.2567 3.24 25.6367 2.028 27.6887 2.028C29.7407 2.028 31.1207 3.24 31.1207 5.16C31.1207 7.056 29.7407 8.28 27.6887 8.28ZM27.6887 6.684C28.9007 6.684 29.3327 6.216 29.3327 5.16C29.3327 4.104 28.9007 3.612 27.6887 3.612C26.4647 3.612 26.0447 4.104 26.0447 5.16C26.0447 6.216 26.4647 6.684 27.6887 6.684Z" fill="var(--fill-0, white)"/>
<path id="Vector_10" d="M19.3163 8.28C17.6243 8.28 16.8203 7.236 16.8203 5.892V2.148H18.6203V5.292C18.6203 6.264 19.0283 6.672 20.1683 6.672C21.3443 6.672 21.7643 6.216 21.7643 5.196V2.148H23.5643V8.16H21.8843V6.324H21.7883C21.6323 7.332 20.9003 8.28 19.3163 8.28Z" fill="var(--fill-0, white)"/>
<path id="Vector_11" d="M10.98 8.16H9.18V0.12H10.98V3.984H11.076C11.268 2.964 11.976 2.028 13.512 2.028C15.132 2.028 15.924 3.084 15.924 4.476V8.16H14.124V5.016C14.124 4.008 13.692 3.648 12.564 3.648C11.352 3.648 10.98 4.14 10.98 5.148V8.16Z" fill="var(--fill-0, white)"/>
<path id="Vector_12" d="M4.296 8.28C1.644 8.28 0 6.648 0 4.14C0 1.632 1.644 0 4.296 0C6.792 0 8.4 1.248 8.4 3.288V3.468H6.396V3.288C6.396 2.232 5.796 1.728 4.332 1.728C2.568 1.728 1.908 2.352 1.908 4.14C1.908 5.928 2.568 6.552 4.332 6.552C5.796 6.552 6.396 6.048 6.396 4.992V4.812H8.4V4.992C8.4 7.032 6.804 8.28 4.296 8.28Z" fill="var(--fill-0, white)"/>
</g>
</svg>
