<svg preserveAspectRatio="none" width="100%" height="100%" overflow="visible" style="display: block;" viewBox="0 0 5.51311 4.14" fill="none" xmlns="http://www.w3.org/2000/svg">
<g id="19">
<path id="Vector" d="M3.68911 4.14C2.77111 4.14 2.09911 3.666 2.09911 2.856V2.814H2.56111V2.856C2.56111 3.354 2.85511 3.732 3.68911 3.732C4.69711 3.732 5.06911 3.174 5.06911 2.082V1.716H5.02711C4.88311 2.19 4.33711 2.55 3.53911 2.55C2.55511 2.55 1.97911 2.064 1.97911 1.29C1.97911 0.504 2.59111 0 3.66511 0C4.95511 0 5.51311 0.594 5.51311 2.064C5.51311 3.288 4.93111 4.14 3.68911 4.14ZM3.67111 2.226C4.48711 2.226 4.98511 1.884 4.98511 1.308C4.98511 0.72 4.51711 0.408 3.68311 0.408C2.81311 0.408 2.41711 0.708 2.41711 1.32C2.41711 1.914 2.80111 2.226 3.67111 2.226Z" fill="var(--fill-0, white)"/>
<path id="Vector_2" d="M1.374 4.08H0.948V0.881999H0V0.557999H0.21C0.654 0.557999 0.87 0.437999 1.026 0.0599995H1.374V4.08Z" fill="var(--fill-0, white)"/>
</g>
</svg>
