<svg preserveAspectRatio="none" width="100%" height="100%" overflow="visible" style="display: block;" viewBox="0 0 65 65" fill="none" xmlns="http://www.w3.org/2000/svg">
<g id="Scroll Button Container">
<circle id="Ellipse 6" opacity="0.2" cx="32.5" cy="32.5" r="32.5" fill="var(--fill-0, white)"/>
<path id="Arrow 1" d="M34 25C34 24.4477 33.5523 24 33 24C32.4477 24 32 24.4477 32 25L33 25L34 25ZM32.2929 41.7071C32.6834 42.0976 33.3166 42.0976 33.7071 41.7071L40.0711 35.3431C40.4616 34.9526 40.4616 34.3195 40.0711 33.9289C39.6805 33.5384 39.0474 33.5384 38.6569 33.9289L33 39.5858L27.3431 33.9289C26.9526 33.5384 26.3195 33.5384 25.9289 33.9289C25.5384 34.3195 25.5384 34.9526 25.9289 35.3431L32.2929 41.7071ZM33 25L32 25L32 41L33 41L34 41L34 25L33 25Z" fill="var(--stroke-0, #FEFEFE)"/>
</g>
</svg>
