<svg preserveAspectRatio="none" width="100%" height="100%" overflow="visible" style="display: block;" viewBox="0 0 9.66667 13.0004" fill="none" xmlns="http://www.w3.org/2000/svg">
<path id="icon" d="M1.35093 0.535374C1.51559 0.453044 1.71581 0.519785 1.79814 0.684445L2.495 2.07816C3.08768 3.26351 3.4229 4.54198 3.49886 5.83352H6.16781C6.24376 4.54198 6.57899 3.26351 7.17167 2.07816L7.86852 0.684445C7.95085 0.519785 8.15108 0.453044 8.31574 0.535374C8.4804 0.617703 8.54714 0.817928 8.46481 0.982587L7.76795 2.3763C7.22214 3.46793 6.91085 4.64437 6.83571 5.83352H8.83333C9.01743 5.83352 9.16667 5.98275 9.16667 6.16685C9.16667 6.35094 9.01743 6.50018 8.83333 6.50018H6.81834C6.83163 7.71166 7.08945 8.92237 7.59349 10.0565L8.47127 12.0315C8.54604 12.1997 8.47027 12.3967 8.30205 12.4715C8.13382 12.5462 7.93683 12.4705 7.86206 12.3022L6.98428 10.3272C6.44188 9.10683 6.16495 7.80385 6.15163 6.50018H3.51503C3.50171 7.80385 3.22478 9.10683 2.68238 10.3272L1.8046 12.3022C1.72984 12.4705 1.53285 12.5462 1.36462 12.4715C1.19639 12.3967 1.12063 12.1997 1.1954 12.0315L2.07317 10.0565C2.57722 8.92237 2.83503 7.71166 2.84833 6.50018H0.833333C0.649238 6.50018 0.5 6.35094 0.5 6.16685C0.5 5.98275 0.649238 5.83352 0.833333 5.83352H2.83095C2.75582 4.64437 2.44453 3.46793 1.89872 2.3763L1.20186 0.982587C1.11953 0.817928 1.18627 0.617703 1.35093 0.535374Z" fill="var(--fill-0, #BCFF2F)" stroke="var(--stroke-0, #BCFF2F)" stroke-linecap="round"/>
</svg>
